<?xml version="1.0" standalone="no"?>
<!DOCTYPE svg PUBLIC "-//W3C//DTD SVG 20010904//EN"
 "http://www.w3.org/TR/2001/REC-SVG-20010904/DTD/svg10.dtd">
<svg version="1.0" xmlns="http://www.w3.org/2000/svg"
 width="132.000000pt" height="132.000000pt" viewBox="0 0 132.000000 132.000000"
 preserveAspectRatio="xMidYMid meet">

<g transform="translate(0.000000,132.000000) scale(0.100000,-0.100000)"
fill="#000000" stroke="none">
<path d="M1255 1220 c-27 -11 -59 -25 -70 -31 -29 -18 -86 -29 -78 -16 4 6 -2
8 -15 5 -12 -4 -20 -3 -17 2 3 4 -7 11 -23 14 -15 4 -35 9 -46 13 -13 3 -16 1
-11 -7 5 -9 -5 -10 -40 -4 -27 4 -55 7 -63 8 -8 1 -23 -18 -34 -43 l-19 -45
21 19 c18 16 20 17 14 2 -7 -20 6 -23 24 -5 7 7 13 8 13 2 1 -5 2 -16 3 -24 0
-8 7 -14 14 -12 8 1 11 -2 7 -8 -3 -5 -13 -10 -21 -10 -8 0 -14 -6 -14 -12 0
-10 -2 -10 -9 0 -4 7 -12 12 -17 11 -21 -4 -33 2 -36 19 -3 11 -10 0 -22 -29
-11 -29 -27 -51 -42 -58 -13 -6 -24 -17 -24 -24 0 -7 -28 -23 -63 -35 -34 -13
-80 -33 -101 -46 l-38 -23 28 -11 c16 -7 64 -14 107 -16 73 -3 100 -15 59 -26
-16 -4 -17 -10 -9 -40 l9 -35 17 35 c19 39 15 38 137 19 85 -13 144 -7 237 26
36 13 37 13 37 -9 0 -33 35 -73 70 -81 24 -5 28 -10 21 -24 -6 -10 -5 -23 1
-34 14 -26 41 -2 34 29 -4 14 -1 24 9 27 12 5 14 44 15 237 0 209 -2 230 -17
230 -15 0 -14 2 3 15 26 20 9 18 -51 -5z m25 -16 c0 -14 -28 -30 -57 -32 -18
-1 -33 0 -33 3 0 6 61 33 78 34 6 1 12 -2 12 -5z m-290 -59 c11 -13 10 -14 -4
-9 -9 3 -16 10 -16 15 0 13 6 11 20 -6z m-243 -196 c-14 -8 -16 -14 -6 -25 6
-8 18 -14 26 -14 8 0 11 -4 8 -10 -3 -5 -46 -9 -96 -8 -49 1 -86 5 -81 10 8 8
140 56 157 57 6 0 2 -4 -8 -10z m133 -63 c0 -2 -8 -10 -17 -17 -16 -13 -17
-12 -4 4 13 16 21 21 21 13z m75 -6 c-3 -5 -12 -10 -18 -10 -7 0 -6 4 3 10 19
12 23 12 15 0z m305 2 c0 -14 -37 -30 -51 -22 -10 7 -8 11 11 19 31 12 40 13
40 3z"/>
<path d="M280 889 c0 -5 -4 -7 -10 -4 -5 3 -10 1 -10 -5 0 -7 -7 -10 -15 -6
-8 3 -15 1 -15 -4 0 -5 -11 -12 -25 -16 -14 -3 -31 -18 -37 -32 -18 -37 -43
-43 -34 -8 5 21 3 26 -13 26 -14 0 -21 -10 -25 -35 -5 -23 -13 -35 -24 -36
-12 0 -11 -3 6 -9 22 -9 22 -11 8 -45 -16 -39 -11 -69 10 -61 7 3 22 -7 33
-22 l20 -27 1 25 c1 48 11 65 51 82 23 10 43 26 46 36 3 13 11 18 27 15 17 -4
28 3 44 29 l22 33 -25 21 c-17 13 -24 26 -19 37 3 10 1 17 -5 17 -6 0 -11 -5
-11 -11z m19 -63 c14 -17 0 -29 -23 -20 -17 7 -20 16 -9 27 10 11 19 8 32 -7z
m-159 -82 c0 -13 -4 -24 -10 -24 -5 0 -10 14 -10 31 0 17 4 28 10 24 6 -3 10
-17 10 -31z"/>
<path d="M160 653 c0 -7 5 -23 11 -37 9 -18 9 -29 1 -39 -6 -7 -7 -18 -3 -26
7 -10 10 -9 16 8 10 34 25 14 24 -32 -3 -57 40 -133 84 -150 18 -7 24 -47 7
-47 -5 0 -10 -18 -10 -41 0 -32 4 -42 20 -46 11 -3 20 -14 20 -25 0 -15 -3
-17 -19 -8 -33 17 -101 10 -101 -10 0 -5 12 -13 28 -18 l27 -10 -27 -1 -27 -1
20 -35 c13 -21 31 -37 48 -41 14 -3 31 -7 38 -9 7 -2 15 0 18 6 4 5 10 7 15 4
5 -3 27 3 49 14 45 23 63 59 37 73 -20 11 -21 44 -1 52 8 3 15 12 15 19 0 8 9
21 21 28 20 14 19 16 -38 59 -32 25 -82 70 -110 100 -29 30 -53 49 -53 41 0
-17 -13 -6 -16 13 -3 19 -94 173 -94 159z m185 -523 c3 -5 1 -10 -4 -10 -6 0
-11 5 -11 10 0 6 2 10 4 10 3 0 8 -4 11 -10z"/>
<path d="M1146 591 c-5 -7 -74 -24 -146 -35 -15 -2 -9 -4 15 -5 22 0 73 8 113
19 79 22 143 26 173 10 11 -6 19 -7 19 -1 0 5 -7 12 -16 15 -24 9 -152 7 -158
-3z"/>
<path d="M1100 494 c-85 -13 -165 -22 -177 -20 -12 1 -20 -1 -17 -6 3 -5 -2
-18 -11 -28 -13 -14 -16 -30 -12 -59 4 -32 2 -38 -12 -36 -9 1 -1 -3 17 -8 23
-8 32 -17 32 -31 0 -39 -14 -47 -83 -49 -37 -1 -67 -5 -67 -9 0 -4 -8 -7 -17
-7 -49 0 -253 -58 -253 -71 0 -5 26 -12 57 -15 99 -11 102 -15 31 -44 -79 -34
-178 -56 -212 -47 -15 4 -26 2 -26 -4 0 -5 12 -10 28 -11 354 -11 396 -9 510
26 19 6 22 4 22 -18 0 -24 4 -26 58 -32 31 -3 69 -9 84 -11 l27 -5 0 66 c0 61
-2 67 -25 75 -14 6 -45 10 -70 10 -37 0 -44 3 -44 20 0 17 4 19 28 14 15 -4
33 -11 40 -17 8 -6 12 -5 11 4 -1 20 -17 57 -18 42 -1 -7 -10 -13 -21 -13 -25
0 -25 9 -2 26 15 13 14 13 -10 5 -19 -7 -28 -6 -31 2 -6 16 -1 67 8 75 9 9
112 8 148 -1 27 -7 27 -9 27 -87 0 -65 3 -80 15 -80 15 0 15 10 -1 118 -6 40
0 41 105 3 l81 -28 0 138 0 139 -32 -1 c-18 0 -103 -12 -188 -25z m177 -179
c0 -8 -4 -12 -9 -9 -5 3 -6 10 -3 15 9 13 12 11 12 -6z m-379 -117 c-3 -7 -22
-16 -44 -19 -45 -7 -90 -24 -98 -37 -3 -5 6 -7 19 -4 18 3 25 0 25 -11 0 -23
-21 -35 -89 -53 -72 -18 -97 -9 -68 24 9 10 17 23 17 29 0 6 9 13 20 16 11 3
20 1 20 -4 0 -11 38 7 58 28 7 7 25 16 40 19 15 3 38 10 52 14 37 12 52 12 48
-2z m-173 -28 c-3 -5 -12 -10 -18 -10 -7 0 -6 4 3 10 19 12 23 12 15 0z"/>
<path d="M798 363 c7 -3 16 -2 19 1 4 3 -2 6 -13 5 -11 0 -14 -3 -6 -6z"/>
<path d="M880 305 c0 -8 2 -15 4 -15 2 0 6 7 10 15 3 8 1 15 -4 15 -6 0 -10
-7 -10 -15z"/>
<path d="M1276 189 c-14 -11 -24 -25 -20 -30 3 -5 12 -2 20 6 9 8 22 15 30 15
8 0 14 7 14 15 0 20 -12 19 -44 -6z"/>
<path d="M1248 70 l4 -70 34 0 34 0 0 60 0 60 -30 0 c-16 0 -30 5 -30 10 0 6
-3 10 -7 10 -5 0 -7 -31 -5 -70z"/>
<path d="M1117 96 c-3 -8 -1 -17 6 -20 9 -5 9 -7 1 -11 -7 -3 -10 -15 -7 -25
4 -16 14 -20 54 -20 53 0 54 2 43 59 -6 29 -9 31 -49 31 -28 0 -45 -5 -48 -14z"/>
<path d="M285 70 c-4 -6 5 -10 20 -10 15 0 24 4 20 10 -3 6 -12 10 -20 10 -8
0 -17 -4 -20 -10z"/>
</g>
</svg>
